<?xml version="1.0" encoding="UTF-8" standalone="no"?>
<svg
   width="20"
   height="20"
   viewBox="0 0 0.6 0.6"
   fill="none"
   version="1.1"
   id="svg6"
   xmlns="http://www.w3.org/2000/svg"
   xmlns:svg="http://www.w3.org/2000/svg">
  <path
     d="m 0.18293433,0.05112167 c 0,-0.01128757 -0.009108,-0.020442 -0.0203449,-0.020442 -0.0112339,0 -0.0203449,0.0091521 -0.0203449,0.020442 V 0.09416583 C 0.10319995,0.09731035 0.07756737,0.10501926 0.05873586,0.12393827 0.03990436,0.14285964 0.03223092,0.16861449 0.0291048,0.20784535 H 0.56734101 C 0.56421167,0.16861459 0.55653912,0.14285964 0.53770993,0.12393827 0.51887842,0.10501689 0.49324585,0.09730687 0.45420248,0.09416583 V 0.0511205 c 0,-0.01128757 -0.009108,-0.02044201 -0.0203449,-0.02044201 -0.011234,0 -0.0203449,0.0091521 -0.0203449,0.02044201 V 0.09235652 C 0.39546468,0.092005 0.37523648,0.092005 0.35247658,0.092005 H 0.2439695 c -0.02276,0 -0.0429892,0 -0.061036,3.5152e-4 z"
     fill="#1c274c"
     id="path2"
     style="stroke-width:0.0271915;fill:#000000;fill-opacity:1" />
  <path
     fill-rule="evenodd"
     clip-rule="evenodd"
     d="m 0.02695491,0.3100563 c 0,-0.0228684 0,-0.0431932 3.4997e-4,-0.0613272 h 0.54183704 c 3.4999e-4,0.0181341 3.4999e-4,0.0384588 3.4999e-4,0.0613272 v 0.0545124 c 0,0.10278851 0,0.15418593 -0.0317822,0.18611664 -0.0317786,0.0319338 -0.0829317,0.0319338 -0.18523272,0.0319338 H 0.24396996 c -0.10230157,0 -0.15345259,0 -0.18523376,-0.0319338 C 0.02695491,0.5187549 0.02695491,0.46735771 0.02695491,0.36456885 Z m 0.40690263,0.0545124 c 0.0149825,0 0.0271273,-0.0122028 0.0271273,-0.0272568 0,-0.0150541 -0.0121448,-0.0272568 -0.0271273,-0.0272568 -0.0149826,0 -0.0271262,0.0122028 -0.0271262,0.0272568 0,0.015054 0.0121448,0.0272568 0.0271262,0.0272568 z m 0,0.10902483 c 0.0149825,0 0.0271273,-0.0122027 0.0271273,-0.0272568 0,-0.0150541 -0.0121448,-0.0272567 -0.0271273,-0.0272567 -0.0149826,0 -0.0271262,0.0122027 -0.0271262,0.0272567 0,0.0150541 0.0121448,0.0272568 0.0271262,0.0272568 z M 0.32535019,0.33731252 c 0,0.015054 -0.0121448,0.0272568 -0.0271273,0.0272568 -0.0149825,0 -0.0271273,-0.0122027 -0.0271273,-0.0272568 0,-0.0150541 0.0121448,-0.0272568 0.0271273,-0.0272568 0.0149826,0 0.0271273,0.0122028 0.0271273,0.0272568 z m 0,0.10902483 c 0,0.0150541 -0.0121448,0.0272568 -0.0271273,0.0272568 -0.0149825,0 -0.0271273,-0.0122028 -0.0271273,-0.0272568 0,-0.0150539 0.0121448,-0.0272568 0.0271273,-0.0272568 0.0149826,0 0.0271273,0.0122027 0.0271273,0.0272568 z M 0.16258915,0.36456885 c 0.0149814,0 0.0271273,-0.0122027 0.0271273,-0.0272568 0,-0.0150541 -0.0121448,-0.0272567 -0.0271273,-0.0272567 -0.0149814,0 -0.0271273,0.0122027 -0.0271273,0.0272567 0,0.0150541 0.0121448,0.0272568 0.0271273,0.0272568 z m 0,0.10902483 c 0.0149814,0 0.0271273,-0.0122028 0.0271273,-0.0272568 0,-0.0150541 -0.0121448,-0.0272568 -0.0271273,-0.0272568 -0.0149814,0 -0.0271273,0.0122027 -0.0271273,0.0272568 0,0.015054 0.0121448,0.0272568 0.0271273,0.0272568 z"
     fill="#1c274c"
     id="path4"
     style="stroke-width:0.0271915;fill:#000000;fill-opacity:1" />
</svg>
