<?xml version="1.0" encoding="UTF-8" standalone="no"?>
<!-- Uploaded to: SVG Repo, www.svgrepo.com, Generator: SVG Repo Mixer Tools -->

<svg
   version="1.0"
   id="Layer_1"
   width="20"
   height="20"
   viewBox="0 0 1.6 1.6"
   enable-background="new 0 0 64 64"
   xml:space="preserve"
   sodipodi:docname="location.svg"
   inkscape:version="1.2.2 (732a01da63, 2022-12-09)"
   xmlns:inkscape="http://www.inkscape.org/namespaces/inkscape"
   xmlns:sodipodi="http://sodipodi.sourceforge.net/DTD/sodipodi-0.dtd"
   xmlns="http://www.w3.org/2000/svg"
   xmlns:svg="http://www.w3.org/2000/svg"><defs
   id="defs7" /><sodipodi:namedview
   id="namedview5"
   pagecolor="#ffffff"
   bordercolor="#000000"
   borderopacity="0.25"
   inkscape:showpageshadow="2"
   inkscape:pageopacity="0.0"
   inkscape:pagecheckerboard="0"
   inkscape:deskcolor="#d1d1d1"
   showgrid="false"
   inkscape:zoom="23.673935"
   inkscape:cx="8.3213881"
   inkscape:cy="16.537175"
   inkscape:window-width="1392"
   inkscape:window-height="1040"
   inkscape:window-x="2184"
   inkscape:window-y="703"
   inkscape:window-maximized="0"
   inkscape:current-layer="Layer_1" />
<path
   fill="#231f20"
   d="m 0.8002318,-5.7823777e-4 c -0.3313497,0 -0.5999996,0.26865009777 -0.5999996,0.59999979777 0,0.130475 0.042775,0.2501997 0.1138748,0.3482497 0.00127,0.00235 0.00148,0.00497 0.00293,0.00723 L 0.7170368,1.5549008 c 0.01855,0.027825 0.0498,0.044525 0.0832,0.044525 0.0334,0 0.06465,-0.016701 0.0832,-0.044525 L 1.283433,0.95489706 c 0.00146,-0.00225 0.00164,-0.00488 0.00292,-0.00723 0.0711,-0.09805 0.1138748,-0.2177747 0.1138748,-0.3482497 0,-0.3313497 -0.2686499,-0.59999979777 -0.5999996,-0.59999979777 z m 0,0.79999959777 c -0.1104497,0 -0.1999998,-0.08955 -0.1999998,-0.1999998 0,-0.11045 0.08955,-0.2 0.1999998,-0.2 0.1104497,0 0.1999998,0.08955 0.1999998,0.2 0,0.1104498 -0.08955,0.1999998 -0.1999998,0.1999998 z"
   id="path2"
   style="stroke-width:0.0249999" />
</svg>
